<svg xmlns="http://www.w3.org/2000/svg" xmlns:xlink="http://www.w3.org/1999/xlink" width="48" height="38" viewBox="0 0 48 38">
    <defs>
        <path id="b" d="M24.38 0c8.524 0 15.433 6.716 15.433 15 0 3.796-1.45 7.263-3.843 9.905L40.91 30H24.77c-.126-.002-.258 0-.39 0-8.522 0-15.432-6.716-15.432-15 0-8.284 6.91-15 15.433-15zM7.004 9.648V29.47H0V9.648h7.003zm17.313-3.304c-4.906 0-8.884 3.875-8.884 8.656 0 4.78 3.978 8.656 8.884 8.656 4.906 0 8.883-3.875 8.883-8.656 0-4.78-3.977-8.656-8.883-8.656zM7.003 1.586v7.136L0 1.586h7.003z"/>
        <filter id="a" width="134.2%" height="146.7%" x="-17.1%" y="-16.7%" filterUnits="objectBoundingBox">
            <feOffset dy="2" in="SourceAlpha" result="shadowOffsetOuter1"/>
            <feGaussianBlur in="shadowOffsetOuter1" result="shadowBlurOuter1" stdDeviation="2"/>
            <feColorMatrix in="shadowBlurOuter1" values="0 0 0 0 0 0 0 0 0 0 0 0 0 0 0 0 0 0 0.0739729021 0"/>
        </filter>
    </defs>
    <g fill="none" fill-rule="evenodd" transform="translate(4 2)">
        <use fill="#000" filter="url(#a)" xlink:href="#b"/>
        <use fill="#FFF" xlink:href="#b"/>
    </g>
</svg>
