<svg xmlns="http://www.w3.org/2000/svg" width="50" height="50" viewBox="0 0 50 50">
    <g fill="none" fill-rule="evenodd">
        <rect width="50" height="50" fill="#5E1E46" fill-opacity=".136" rx="25"/>
        <path fill="#FFF" d="M31.556 25.388l7.23 7.056v-14.52l-7.23 7.464zm-3.903 3.958c-.157.144-.362.404-.603.567-.26.174-.519.379-.795.466-.287.09-.586.167-.89.167-.301 0-.6-.091-.89-.182-.277-.088-.536-.294-.794-.468-.245-.165-.46-.386-.6-.514-.08-.076-.162-.15-.238-.228l-.247-.236-2.262-2.4-7.87 7.627h25.858l-7.905-7.655-2.764 2.856zm-3.545-1.22c.166.153.296.258.42.342a1.398 1.398 0 0 0 1.611-.001c.156-.104.306-.238.42-.342l.459-.438L37.574 17H13.181l10.716 10.926c.078.077.144.14.21.2zM12 17.987v14.44l7.233-7.032L12 17.987z"/>
    </g>
</svg>
