<svg xmlns="http://www.w3.org/2000/svg" width="50" height="50" viewBox="0 0 50 50">
    <g fill="none" fill-rule="evenodd">
        <rect width="50" height="50" fill="#5E1E46" fill-opacity=".136" rx="25"/>
        <path fill="#FFF" d="M14.991 23.027C13.55 20.414 13 18.307 13 16.884s.35-1.832.704-2.161c.355-.33 1.955-1.317 2.228-1.5.272-.184 1.313-.542 1.965.397.653.938 1.881 2.823 2.728 4.075 1.33 1.773.27 2.551-.071 3.018-.63.858-.992 1.07-.992 2.124s2.946 4.05 3.65 4.787c.7.732 3.635 3.306 4.545 3.443.916.139 2.142-.83 2.403-1.077 1.326-1.018 2.075-.246 2.686.09.61.335 3.37 2.055 4.226 2.635.805.58.755 1.476.755 1.476s-1.66 2.635-1.862 2.951c-.251.37-.855.686-2.214.686-1.358 0-2.81-.249-6.26-2.146-2.822-1.552-5.513-3.983-6.922-5.406-1.46-1.423-3.931-4.263-5.578-7.249z"/>
    </g>
</svg>
